<?xml version="1.0" encoding="UTF-8" standalone="no"?>
<!DOCTYPE svg PUBLIC "-//W3C//DTD SVG 1.1//EN" "http://www.w3.org/Graphics/SVG/1.1/DTD/svg11.dtd">
<svg width="100%" height="100%" viewBox="0 0 1024 1024" version="1.1" xmlns="http://www.w3.org/2000/svg" xmlns:xlink="http://www.w3.org/1999/xlink" xml:space="preserve" xmlns:serif="http://www.serif.com/" style="fill-rule:evenodd;clip-rule:evenodd;stroke-linejoin:round;stroke-miterlimit:2;">
    <path d="M47,670C47,670 194.67,650.251 426,527C426,527 540.624,449.657 680,386L978,511C978,511 786.713,615.769 691,698C691,698 544.446,821.462 338,873L47,670Z" style="fill:rgb(229,228,205);"/>
    <path d="M79,676C79,676 187.67,665.251 419,542C419,542 544.624,460.657 684,397L954,514C954,514 769.713,606.769 674,689C674,689 545.446,807.462 339,859L79,676Z" style="fill:rgb(135,157,117);"/>
    <path d="M193,667C193,667 216.135,694.333 180,714L301,799C301,799 361.865,791.043 399,814C399,814 550.802,759.482 654,673C654,673 808.135,556.766 859,535C859,535 822.917,515.307 854,490L729,436C729,436 673.917,459.97 648,432L488,528C488,528 221.155,669.785 193,667Z" style="fill:rgb(228,227,205);"/>
    <path d="M328,686C328,686 283.865,708.033 322,729C322,729 351.439,749.835 388,731C388,731 409.531,727.587 394,696C394,696 365.611,676.64 328,686Z" style="fill:rgb(135,157,117);"/>
    <path d="M668,491C668,491 623.865,513.033 662,534C662,534 691.439,554.835 728,536C728,536 749.531,532.587 734,501C734,501 705.611,481.64 668,491Z" style="fill:rgb(135,158,117);"/>
    <path d="M447,664C447,664 533.066,740.304 632,675C632,675 714.611,615.297 636,546C636,546 554.31,490.135 470,550C470,550 372.3,602.634 447,664Z" style="fill:rgb(134,158,116);"/>
    <path d="M419,717C419,717 318.587,671.37 307,577C295.413,482.63 323.644,486.327 332,447C340.356,407.673 342.63,441.287 338,389C333.37,336.713 353.099,446.696 373,446C392.901,445.304 413.736,453.937 407,407C400.264,360.063 427.884,338.888 445,314C462.116,289.112 508.832,251.36 507,218C505.168,184.64 526.99,163.881 504,118C481.01,72.119 590.917,224.059 594,240C597.083,255.941 622.033,327.611 607,362C591.967,396.389 610.97,419.723 616,426C621.03,432.277 670.842,455.782 678,379C685.158,302.218 690.373,410.132 717,469C743.627,527.868 707.485,602.617 697,614C686.515,625.383 669.459,666.462 628,700C586.541,733.538 578,726 578,726C578,726 631.248,674.518 610,598L554,629C554,629 567.04,572.125 520,517C520,517 494.238,606.145 462,630C462,630 428.535,627.726 411,610C411,610 385.95,665.723 437,723L419,717Z" style="fill:rgb(244,51,16);"/>
    <path d="M440,724C440,724 337.079,673.119 368,569C368,569 387.815,528.208 390,504C390,504 454.337,629.419 462,457C462,457 471.99,365.251 541,333C541,333 507.092,409.013 580,479C580,479 593.861,482.205 595,544C595,544 618.284,548.521 631,498C631,498 735.848,609.842 575,728C575,728 622.083,684.868 608,603L551,635C551,635 558.703,551.416 520,523C520,523 512.442,613.604 461,636C461,636 418.221,630.617 413,616C413,616 390.545,654.564 440,724Z" style="fill:rgb(244,144,16);"/>
</svg>
